<svg width="24" height="24" viewBox="0 0 24 24" fill="none" xmlns="http://www.w3.org/2000/svg">
<g id="Icon/Crohns">
<path id="Union (Stroke)" fill-rule="evenodd" clip-rule="evenodd" d="M12.524 14.8645C13.4472 14.6649 14.2912 14.2528 15.0025 13.682C15.1642 13.5523 15.3998 13.5641 15.5528 13.7039C16.264 14.3537 17.2107 14.75 18.25 14.75C20.4591 14.75 22.25 12.9591 22.25 10.75C22.25 8.54086 20.4591 6.75 18.25 6.75C17.9087 6.75 17.5775 6.79274 17.2612 6.87315C17.0604 6.92421 16.847 6.82373 16.7652 6.63334C15.847 4.49647 13.7233 3 11.25 3C7.93629 3 5.25 5.68629 5.25 9C5.25 9.91461 5.45464 10.7814 5.82063 11.5571C5.93422 11.7979 5.79311 12.0938 5.53672 12.1655C3.64079 12.695 2.25 14.4351 2.25 16.5C2.25 18.9853 4.26472 21 6.75 21C9.23528 21 11.25 18.9853 11.25 16.5C11.25 16.0627 11.1876 15.6399 11.0712 15.2401C11.0367 15.1216 11.1266 15 11.25 15C11.5395 15 11.8243 14.9795 12.1028 14.9399C12.2447 14.9197 12.3849 14.8945 12.5234 14.8646C12.5236 14.8646 12.5238 14.8645 12.524 14.8645ZM11.25 13.5C12.3165 13.5 13.2927 13.1309 14.0637 12.5122C14.824 11.902 15.8866 11.9771 16.5646 12.5965C17.0102 13.0036 17.5996 13.25 18.25 13.25C19.6307 13.25 20.75 12.1307 20.75 10.75C20.75 9.36929 19.6307 8.25 18.25 8.25C18.0344 8.25 17.8273 8.27694 17.6309 8.32689C16.7423 8.55282 15.7712 8.1197 15.387 7.22552C14.6971 5.6198 13.1026 4.5 11.25 4.5C8.76472 4.5 6.75 6.51472 6.75 9C6.75 9.6887 6.90369 10.3373 7.17722 10.9171C7.70112 12.0275 7.05956 13.2975 5.94026 13.6102C4.67558 13.9634 3.75 15.1256 3.75 16.5C3.75 18.1569 5.09315 19.5 6.75 19.5C8.40685 19.5 9.75 18.1569 9.75 16.5C9.75 16.206 9.70814 15.9243 9.63101 15.6593C9.3219 14.5973 10.11 13.5 11.25 13.5Z" fill="#27292E"/>
</g>
</svg>