<svg width="24" height="24" viewBox="0 0 24 24" fill="none" xmlns="http://www.w3.org/2000/svg">
<g id="Icon/Extent">
<g id="Union">
<path d="M20.25 17.2475C20.25 17.6631 20.5858 18 21 18C21.4142 18 21.75 17.6631 21.75 17.2475L21.75 6.75246C21.75 6.33689 21.4142 6 21 6C20.5858 6 20.25 6.33689 20.25 6.75246L20.25 17.2475Z" fill="#27292E"/>
<path d="M17.8128 11.5046C17.8013 11.4916 17.7893 11.4789 17.7769 11.4666L12.7504 6.44014C12.4575 6.14725 11.9826 6.14725 11.6897 6.44014C11.3968 6.73303 11.3968 7.20791 11.6897 7.5008L15.4393 11.2504L3 11.2504C2.58579 11.2504 2.25 11.5862 2.25 12.0004C2.25 12.4146 2.58579 12.7504 3 12.7504L15.4393 12.7504L11.6897 16.5C11.3968 16.7929 11.3968 17.2678 11.6897 17.5607C11.9826 17.8535 12.4575 17.8535 12.7504 17.5607L17.7769 12.5341C17.7893 12.5219 17.8013 12.5092 17.8128 12.4962C17.863 12.4393 17.9031 12.3767 17.9331 12.3105C17.9761 12.216 18 12.111 18 12.0004C18 11.8898 17.9761 11.7848 17.9331 11.6903C17.9031 11.6241 17.863 11.5615 17.8128 11.5046Z" fill="#27292E"/>
</g>
</g>
</svg>