<svg width="24" height="24" viewBox="0 0 24 24" fill="none" xmlns="http://www.w3.org/2000/svg">
<g id="Icon/GeneralBiopsy">
<path id="Union" fill-rule="evenodd" clip-rule="evenodd" d="M17.3767 1.50092C17.0838 1.79381 17.0838 2.26869 17.3767 2.56158L18.832 4.01682C18.8006 4.03964 18.7707 4.06519 18.7424 4.09346L16.4482 6.38761L14.3419 4.28129C14.049 3.98839 13.5742 3.98839 13.2813 4.28129C12.9884 4.57418 12.9884 5.04905 13.2813 5.34194L13.7287 5.78935L5.02359 14.4944C4.7307 14.7873 4.7307 15.2622 5.02359 15.5551L6.1522 16.6837L3.00092 19.835C2.70803 20.1279 2.70803 20.6027 3.00092 20.8956C3.29381 21.1885 3.76869 21.1885 4.06158 20.8956L7.21286 17.7444L8.35455 18.886C8.64744 19.1789 9.12231 19.1789 9.41521 18.886L18.1203 10.181L18.4943 10.555C18.7872 10.8479 19.2621 10.8479 19.555 10.555C19.8479 10.2621 19.8479 9.78725 19.555 9.49435L17.5089 7.44827L19.803 5.15412C19.8313 5.12585 19.8569 5.09587 19.8797 5.06453L21.3351 6.5199C21.628 6.8128 22.1028 6.8128 22.3957 6.5199C22.6886 6.22701 22.6886 5.75214 22.3957 5.45924L18.4374 1.50092C18.1445 1.20803 17.6696 1.20803 17.3767 1.50092ZM6.61458 15.0248L8.88487 17.295L16.8015 9.3784L14.5312 7.10811L6.61458 15.0248Z" fill="#27292E"/>
</g>
</svg>