<svg width="24" height="24" viewBox="0 0 24 24" fill="none" xmlns="http://www.w3.org/2000/svg">
<g id="Icon/Hemorrhoid">
<path id="KudoClassification" fill-rule="evenodd" clip-rule="evenodd" d="M8.52165 11.01C10.3193 11.01 11.7766 9.55266 11.7766 7.75498C11.7766 5.95731 10.3193 4.5 8.52165 4.5C6.72397 4.5 5.26667 5.95731 5.26667 7.75498C5.26667 9.55266 6.72397 11.01 8.52165 11.01ZM20.2144 12.9557C20.2144 14.3718 19.0664 15.5197 17.6504 15.5197C16.2343 15.5197 15.0864 14.3718 15.0864 12.9557C15.0864 11.5397 16.2343 10.3918 17.6504 10.3918C19.0664 10.3918 20.2144 11.5397 20.2144 12.9557ZM14.5407 17.7564C14.5407 19.1724 13.3927 20.3203 11.9767 20.3203C10.5606 20.3203 9.4127 19.1724 9.4127 17.7564C9.4127 16.3403 10.5606 15.1924 11.9767 15.1924C13.3927 15.1924 14.5407 16.3403 14.5407 17.7564ZM17.9965 6.71846C17.9965 7.76292 17.1498 8.60962 16.1053 8.60962C15.0608 8.60962 14.2141 7.76292 14.2141 6.71846C14.2141 5.674 15.0608 4.8273 16.1053 4.8273C17.1498 4.8273 17.9965 5.674 17.9965 6.71846ZM5.81304 16.2107C6.8575 16.2107 7.7042 15.364 7.7042 14.3195C7.7042 13.2751 6.8575 12.4284 5.81304 12.4284C4.76858 12.4284 3.92188 13.2751 3.92188 14.3195C3.92188 15.364 4.76858 16.2107 5.81304 16.2107Z" fill="#27292E"/>
</g>
</svg>