<svg width="24" height="24" viewBox="0 0 24 24" fill="none" xmlns="http://www.w3.org/2000/svg">
<g id="Icon/Tumor">
<g id="Union">
<path d="M10.4362 10.125C10.4362 10.6428 10.0361 11.0625 9.54262 11.0625C9.0491 11.0625 8.64902 10.6428 8.64902 10.125C8.64902 9.60728 9.0491 9.18756 9.54262 9.18756C10.0361 9.18756 10.4362 9.60728 10.4362 10.125Z" fill="#27292E"/>
<path d="M13.117 14.8124C14.1041 14.8124 14.9042 13.973 14.9042 12.9375C14.9042 11.902 14.1041 11.0625 13.117 11.0625C12.13 11.0625 11.3298 11.902 11.3298 12.9375C11.3298 13.973 12.13 14.8124 13.117 14.8124Z" fill="#27292E"/>
<path fill-rule="evenodd" clip-rule="evenodd" d="M14.8775 1.91508C14.9972 1.41278 14.7061 0.903787 14.2274 0.778213C13.7486 0.652638 13.2634 0.958033 13.1437 1.46033L12.4119 4.53133C12.2028 4.5107 11.9909 4.50015 11.7766 4.50015C10.0117 4.50015 8.4061 5.21588 7.20918 6.38576L3.87587 3.3259C3.50446 2.98495 2.93992 3.02444 2.61493 3.41409C2.28994 3.80374 2.32758 4.39601 2.69899 4.73695L6.07419 7.83527C5.44044 8.90916 5.07462 10.1754 5.07462 11.5313C5.07462 11.9127 5.10357 12.2871 5.1593 12.652L2.17708 13.4342C1.6983 13.5598 1.4072 14.0688 1.52689 14.5711C1.64659 15.0734 2.13176 15.3788 2.61054 15.2532L5.67709 14.4489C6.19175 15.6312 7.00956 16.6378 8.02623 17.3593L6.04832 21.9244C5.8441 22.3957 6.04276 22.9515 6.49205 23.1657C6.94133 23.38 7.47111 23.1716 7.67533 22.7002L9.62805 18.1933C10.3025 18.4326 11.0251 18.5624 11.7766 18.5624C12.0078 18.5624 12.2363 18.5501 12.4615 18.5261L13.6097 22.14C13.7658 22.6312 14.2718 22.8967 14.74 22.7329C15.2082 22.5692 15.4613 22.0383 15.3052 21.5471L14.2056 18.0864C15.2241 17.6707 16.1217 17.0013 16.8281 16.1522L18.8002 17.8764C19.1793 18.2078 19.7428 18.1541 20.0587 17.7563C20.3747 17.3586 20.3235 16.7674 19.9443 16.436L17.8186 14.5776C18.2416 13.6559 18.4786 12.6226 18.4786 11.5313C18.4786 11.3129 18.4691 11.0969 18.4506 10.8836L21.8001 10.1027C22.2818 9.99037 22.5856 9.48959 22.4785 8.98416C22.3715 8.47873 21.8941 8.16006 21.4124 8.27237L18.0515 9.0559C17.3752 7.16993 15.9485 5.66948 14.1531 4.955L14.8775 1.91508ZM16.6914 11.5313C16.6914 14.3789 14.491 16.6874 11.7766 16.6874C9.06225 16.6874 6.86182 14.3789 6.86182 11.5313C6.86182 8.6836 9.06225 6.37511 11.7766 6.37511C14.491 6.37511 16.6914 8.6836 16.6914 11.5313Z" fill="#27292E"/>
</g>
</g>
</svg>