<svg width="24" height="24" viewBox="0 0 24 24" fill="none" xmlns="http://www.w3.org/2000/svg">
<g id="Icon/Polyp">
<path id="NICE" fill-rule="evenodd" clip-rule="evenodd" d="M6.4072 15.545C6.95775 15.8204 7.31463 16.3737 7.33844 16.9889C7.40476 18.7028 8.77205 20.0076 10.3711 20.0076C11.5792 20.0076 12.649 19.2703 13.1357 18.1614C13.497 17.3383 14.4401 16.9428 15.2804 17.2622C15.6042 17.3853 15.9549 17.4529 16.3242 17.4529C17.963 17.4529 19.3594 16.0813 19.3594 14.3046C19.3594 13.4709 19.0493 12.7212 18.5475 12.1616C17.9728 11.5205 17.9728 10.5496 18.5475 9.90855C19.0493 9.3489 19.3594 8.59928 19.3594 7.76554C19.3594 5.98885 17.963 4.61719 16.3242 4.61719C15.7285 4.61719 15.1754 4.79356 14.7058 5.10158C14.0491 5.53232 13.1821 5.45309 12.6143 4.91047C12.0681 4.38838 11.3472 4.07812 10.5586 4.07812C8.91978 4.07812 7.52344 5.44979 7.52344 7.22647C7.52344 7.45513 7.54669 7.6763 7.59027 7.88817C7.75286 8.67856 7.33314 9.47345 6.58874 9.78491C5.48843 10.2453 4.6875 11.3681 4.6875 12.7066C4.6875 13.9692 5.4005 15.0413 6.4072 15.545ZM5.93738 8.22819C4.2142 8.94919 3 10.6827 3 12.7066C3 14.6169 4.08174 16.2685 5.6522 17.0541C5.75206 19.6346 7.82657 21.6951 10.3711 21.6951C12.2902 21.6951 13.942 20.523 14.6809 18.8396C15.1927 19.0342 15.7463 19.1404 16.3242 19.1404C18.9325 19.1404 21.0469 16.9754 21.0469 14.3046C21.0469 13.0439 20.5757 11.8959 19.8039 11.0351C20.5757 10.1743 21.0469 9.02623 21.0469 7.76554C21.0469 5.09477 18.9325 2.92969 16.3242 2.92969C15.3875 2.92969 14.5145 3.20892 13.7803 3.69053C12.9365 2.88412 11.8038 2.39062 10.5586 2.39062C7.95034 2.39062 5.83594 4.55571 5.83594 7.22647C5.83594 7.56992 5.8709 7.905 5.93738 8.22819Z" fill="#1F2124"/>
</g>
</svg>