<svg width="24" height="24" viewBox="0 0 24 24" fill="none" xmlns="http://www.w3.org/2000/svg">
<g id="Icon/Bowel">
<path id="Subtract" d="M12.9827 9.1798C13.9574 9.02039 14.9091 8.85566 15.75 8.70556V12.816L15.2781 12.6616C13.581 12.1065 11.837 13.371 11.837 15.1565V17.9993C11.837 18.7413 12.1961 19.3993 12.75 19.8092V21.7494H13.5V18.4663C13.3979 18.3382 13.337 18.1759 13.337 17.9994V15.1566C13.337 14.3914 14.0844 13.8495 14.8117 14.0874L16.6449 14.687L17.25 13.4993V6.90638C16.1666 7.10975 14.49 7.41343 12.7406 7.69955C10.8032 8.01643 8.74604 8.14067 7.5 8.17697V10.3194C7.5 12.1371 8.12974 15.0973 8.45505 16.3742C8.5573 16.7756 8.31481 17.1839 7.91341 17.2862C7.51202 17.3884 7.10373 17.1459 7.00147 16.7445C6.67461 15.4615 6 12.3417 6 10.3194V7.81383C6 7.19112 6.50121 6.69673 7.11055 6.68583C8.24703 6.66549 10.455 6.55345 12.4985 6.21922C14.4928 5.89304 16.3936 5.54349 17.4126 5.349C18.1065 5.21656 18.75 5.74819 18.75 6.45514V13.5894C18.75 13.7669 18.708 13.9419 18.6274 14.1001L17.8357 15.6539C17.5841 16.1477 17.0103 16.3848 16.4835 16.2124L14.837 15.6738V17.9994C14.837 18.3576 14.5858 18.6572 14.25 18.7316V21.7494H15V20.0563C15.7877 19.7062 16.337 18.9169 16.337 17.9993V17.7209C17.4715 17.9403 18.6357 17.3877 19.1722 16.3348L19.9639 14.781C20.152 14.4119 20.25 14.0035 20.25 13.5893V6.45505C20.25 4.80638 18.7493 3.56671 17.1314 3.87551C16.1218 4.06822 14.2344 4.41529 12.2564 4.7388C10.3091 5.0573 8.17877 5.16638 7.08372 5.18598C5.66985 5.21128 4.5 6.35983 4.5 7.81375V10.3193C4.5 12.5461 5.21947 15.8256 5.5479 17.1148C5.85467 18.3189 7.07954 19.0464 8.28372 18.7397C9.4879 18.4329 10.2154 17.208 9.90862 16.0038C9.58487 14.733 9 11.9325 9 10.3193V9.60919C10.1774 9.53654 11.6043 9.40524 12.9827 9.1798Z" fill="#27292E"/>
</g>
</svg>