<svg width="24" height="24" viewBox="0 0 24 24" fill="none" xmlns="http://www.w3.org/2000/svg">
<g id="Icon/UlcerativeColitis">
<g id="Union">
<path fill-rule="evenodd" clip-rule="evenodd" d="M9.75 6C9.75 7.65685 8.40685 9 6.75 9C5.09315 9 3.75 7.65685 3.75 6C3.75 4.34315 5.09315 3 6.75 3C8.40685 3 9.75 4.34315 9.75 6ZM8.25 6C8.25 6.82843 7.57843 7.5 6.75 7.5C5.92157 7.5 5.25 6.82843 5.25 6C5.25 5.17157 5.92157 4.5 6.75 4.5C7.57843 4.5 8.25 5.17157 8.25 6Z" fill="#27292E"/>
<path fill-rule="evenodd" clip-rule="evenodd" d="M15.375 18.75C18.8958 18.75 21.75 15.7279 21.75 12C21.75 8.27208 18.8958 5.25 15.375 5.25C11.8542 5.25 9 8.27208 9 12C9 15.7279 11.8542 18.75 15.375 18.75ZM15.375 17.25C17.9878 17.25 20.25 14.9814 20.25 12C20.25 9.01857 17.9878 6.75 15.375 6.75C12.7622 6.75 10.5 9.01857 10.5 12C10.5 14.9814 12.7622 17.25 15.375 17.25Z" fill="#27292E"/>
<path fill-rule="evenodd" clip-rule="evenodd" d="M6 21.75C8.07107 21.75 9.75 20.0711 9.75 18C9.75 15.9289 8.07107 14.25 6 14.25C3.92893 14.25 2.25 15.9289 2.25 18C2.25 20.0711 3.92893 21.75 6 21.75ZM6 20.25C7.24264 20.25 8.25 19.2426 8.25 18C8.25 16.7574 7.24264 15.75 6 15.75C4.75736 15.75 3.75 16.7574 3.75 18C3.75 19.2426 4.75736 20.25 6 20.25Z" fill="#27292E"/>
</g>
</g>
</svg>
